solid model
facet normal -1.0 1.2818029466126805e-16 0.0
outer loop
vertex 15.50000000000001 24.0 13.499999999999995
vertex 15.50000000000001 22.000000000000014 6.499999999999999
vertex 15.50000000000001 22.000000000000014 13.499999999999995
endloop
endfacet
facet normal -1.0 1.2818029466126805e-16 0.0
outer loop
vertex 15.50000000000001 22.000000000000014 6.499999999999999
vertex 15.50000000000001 24.0 13.499999999999995
vertex 15.50000000000001 24.0 6.499999999999999
endloop
endfacet
facet normal 0.0 2.0142617732484993e-16 -1.0
outer loop
vertex 15.50000000000001 24.0 13.499999999999995
vertex 4.500000000000009 22.000000000000014 13.499999999999995
vertex 4.500000000000009 24.0 13.499999999999995
endloop
endfacet
facet normal 0.0 2.0142617732484993e-16 -1.0
outer loop
vertex 4.500000000000009 22.000000000000014 13.499999999999995
vertex 15.50000000000001 24.0 13.499999999999995
vertex 15.50000000000001 22.000000000000014 13.499999999999995
endloop
endfacet
facet normal 0.0 1.0 0.0
outer loop
vertex 0.0 0.0 26.000000000000004
vertex 23.962015562689565 0.0 2.0000000000000018
vertex 0.0 0.0 2.0000000000000018
endloop
endfacet
facet normal 0.0 1.0 0.0
outer loop
vertex 23.962015562689565 0.0 2.0000000000000018
vertex 0.0 0.0 26.000000000000004
vertex 23.962015562689565 0.0 16.0
endloop
endfacet
facet normal 0.0 1.0 0.0
outer loop
vertex 23.962015562689565 0.0 16.0
vertex 0.0 0.0 26.000000000000004
vertex 29.999999999999996 0.0 16.0
endloop
endfacet
facet normal 0.0 1.0 0.0
outer loop
vertex 29.999999999999996 0.0 16.0
vertex 0.0 0.0 26.000000000000004
vertex 29.999999999999996 0.0 26.000000000000004
endloop
endfacet
facet normal 1.0 -3.204507366531702e-17 0.0
outer loop
vertex 0.0 22.0 2.0000000000000018
vertex 0.0 0.0 26.000000000000004
vertex 0.0 0.0 2.0000000000000018
endloop
endfacet
facet normal 1.0 -3.204507366531702e-17 0.0
outer loop
vertex 0.0 0.0 26.000000000000004
vertex 0.0 22.0 2.0000000000000018
vertex 0.0 22.0 26.000000000000004
endloop
endfacet
facet normal 0.0 -1.0 0.0
outer loop
vertex 23.962015562689565 22.0 2.0000000000000018
vertex 15.50000000000001 22.000000000000014 6.499999999999999
vertex 0.0 22.0 2.0000000000000018
endloop
endfacet
facet normal 0.0 -1.0 0.0
outer loop
vertex 15.50000000000001 22.000000000000014 6.499999999999999
vertex 23.962015562689565 22.0 2.0000000000000018
vertex 23.962015562689565 22.0 16.0
endloop
endfacet
facet normal 0.0 -1.0 0.0
outer loop
vertex 15.50000000000001 22.000000000000014 6.499999999999999
vertex 23.962015562689565 22.0 16.0
vertex 15.50000000000001 22.000000000000014 13.499999999999995
endloop
endfacet
facet normal 0.0 -1.0 0.0
outer loop
vertex 15.50000000000001 22.000000000000014 13.499999999999995
vertex 23.962015562689565 22.0 16.0
vertex 4.500000000000009 22.000000000000014 13.499999999999995
endloop
endfacet
facet normal 0.0 -1.0 0.0
outer loop
vertex 29.999999999999996 22.0 26.000000000000004
vertex 23.962015562689565 22.0 16.0
vertex 29.999999999999996 22.0 16.0
endloop
endfacet
facet normal 0.0 -1.0 0.0
outer loop
vertex 0.0 22.0 2.0000000000000018
vertex 4.500000000000009 22.000000000000014 6.499999999999999
vertex 0.0 22.0 26.000000000000004
endloop
endfacet
facet normal 0.0 -1.0 0.0
outer loop
vertex 4.500000000000009 22.000000000000014 6.499999999999999
vertex 0.0 22.0 2.0000000000000018
vertex 15.50000000000001 22.000000000000014 6.499999999999999
endloop
endfacet
facet normal 0.0 -1.0 0.0
outer loop
vertex 0.0 22.0 26.000000000000004
vertex 4.500000000000009 22.000000000000014 6.499999999999999
vertex 4.500000000000009 22.000000000000014 13.499999999999995
endloop
endfacet
facet normal 0.0 -1.0 0.0
outer loop
vertex 0.0 22.0 26.000000000000004
vertex 4.500000000000009 22.000000000000014 13.499999999999995
vertex 23.962015562689565 22.0 16.0
endloop
endfacet
facet normal 0.0 -1.0 0.0
outer loop
vertex 0.0 22.0 26.000000000000004
vertex 23.962015562689565 22.0 16.0
vertex 29.999999999999996 22.0 26.000000000000004
endloop
endfacet
facet normal -1.0 0.0 0.0
outer loop
vertex 29.999999999999996 22.0 26.000000000000004
vertex 29.999999999999996 0.0 16.0
vertex 29.999999999999996 0.0 26.000000000000004
endloop
endfacet
facet normal -1.0 0.0 0.0
outer loop
vertex 29.999999999999996 0.0 16.0
vertex 29.999999999999996 22.0 26.000000000000004
vertex 29.999999999999996 22.0 16.0
endloop
endfacet
facet normal 1.0 -1.2818029466126805e-16 -5.163773352398419e-32
outer loop
vertex 4.500000000000009 24.000000000000004 6.499999999999999
vertex 4.500000000000009 22.000000000000014 13.499999999999995
vertex 4.500000000000009 22.000000000000014 6.499999999999999
endloop
endfacet
facet normal 1.0 -1.2818029466126805e-16 -5.163773352398419e-32
outer loop
vertex 4.500000000000009 22.000000000000014 13.499999999999995
vertex 4.500000000000009 24.000000000000004 6.499999999999999
vertex 4.500000000000009 24.0 13.499999999999995
endloop
endfacet
facet normal -1.0165958620525804e-17 -1.0 -8.463246614014195e-18
outer loop
vertex 32.0 -1.9999999999999998 26.000000000000004
vertex -1.9999999999999991 -1.9999999999999998 3.9999999999999996
vertex 32.0 -1.9999999999999998 3.9999999999999996
endloop
endfacet
facet normal -1.0165958620525804e-17 -1.0 -8.463246614014195e-18
outer loop
vertex -1.9999999999999991 -1.9999999999999998 3.9999999999999996
vertex 32.0 -1.9999999999999998 26.000000000000004
vertex -1.9999999999999991 -1.9999999999999998 26.000000000000004
endloop
endfacet
facet normal -1.0165958620525804e-17 -1.0 -8.463246614014195e-18
outer loop
vertex 32.0 -1.9999999999999998 3.9999999999999996
vertex -22.0 -1.9999999999999991 0.0
vertex 32.0 -1.9999999999999998 0.0
endloop
endfacet
facet normal -1.0165958620525804e-17 -1.0 -8.463246614014195e-18
outer loop
vertex -22.0 -1.9999999999999991 0.0
vertex 32.0 -1.9999999999999998 3.9999999999999996
vertex -22.0 -1.9999999999999991 3.9999999999999996
endloop
endfacet
facet normal -1.0165958620525804e-17 -1.0 -8.463246614014195e-18
outer loop
vertex -22.0 -1.9999999999999991 3.9999999999999996
vertex 32.0 -1.9999999999999998 3.9999999999999996
vertex -1.9999999999999991 -1.9999999999999998 3.9999999999999996
endloop
endfacet
facet normal 1.0 0.0 0.0
outer loop
vertex 32.0 24.0 3.9999999999999996
vertex 32.0 -1.9999999999999998 26.000000000000004
vertex 32.0 -1.9999999999999998 3.9999999999999996
endloop
endfacet
facet normal 1.0 0.0 0.0
outer loop
vertex 32.0 -1.9999999999999998 26.000000000000004
vertex 32.0 24.0 3.9999999999999996
vertex 32.0 24.0 26.000000000000004
endloop
endfacet
facet normal 0.0 1.0 0.0
outer loop
vertex -22.0 24.0 3.9999999999999996
vertex 32.0 24.0 0.0
vertex -22.0 24.0 0.0
endloop
endfacet
facet normal 0.0 1.0 0.0
outer loop
vertex 32.0 24.0 0.0
vertex -22.0 24.0 3.9999999999999996
vertex 32.0 24.0 3.9999999999999996
endloop
endfacet
facet normal 0.0 1.0 0.0
outer loop
vertex 32.0 24.0 3.9999999999999996
vertex -22.0 24.0 3.9999999999999996
vertex -1.9999999999999991 24.0 3.9999999999999996
endloop
endfacet
facet normal 0.0 1.0 0.0
outer loop
vertex 32.0 24.0 3.9999999999999996
vertex -1.9999999999999991 24.0 3.9999999999999996
vertex 4.500000000000009 24.000000000000004 6.499999999999999
endloop
endfacet
facet normal 0.0 1.0 0.0
outer loop
vertex 4.500000000000009 24.000000000000004 6.499999999999999
vertex -1.9999999999999991 24.0 3.9999999999999996
vertex -1.9999999999999991 24.0 26.000000000000004
endloop
endfacet
facet normal 0.0 1.0 0.0
outer loop
vertex 4.500000000000009 24.000000000000004 6.499999999999999
vertex -1.9999999999999991 24.0 26.000000000000004
vertex 4.500000000000009 24.0 13.499999999999995
endloop
endfacet
facet normal 0.0 1.0 0.0
outer loop
vertex 4.500000000000009 24.0 13.499999999999995
vertex -1.9999999999999991 24.0 26.000000000000004
vertex 15.50000000000001 24.0 13.499999999999995
endloop
endfacet
facet normal 0.0 1.0 0.0
outer loop
vertex 32.0 24.0 3.9999999999999996
vertex 15.50000000000001 24.0 6.499999999999999
vertex 32.0 24.0 26.000000000000004
endloop
endfacet
facet normal 0.0 1.0 0.0
outer loop
vertex 15.50000000000001 24.0 6.499999999999999
vertex 32.0 24.0 3.9999999999999996
vertex 4.500000000000009 24.000000000000004 6.499999999999999
endloop
endfacet
facet normal 0.0 1.0 0.0
outer loop
vertex 32.0 24.0 26.000000000000004
vertex 15.50000000000001 24.0 6.499999999999999
vertex 15.50000000000001 24.0 13.499999999999995
endloop
endfacet
facet normal 0.0 1.0 0.0
outer loop
vertex 32.0 24.0 26.000000000000004
vertex 15.50000000000001 24.0 13.499999999999995
vertex -1.9999999999999991 24.0 26.000000000000004
endloop
endfacet
facet normal -1.0 0.0 0.0
outer loop
vertex -1.9999999999999991 24.0 26.000000000000004
vertex -1.9999999999999991 -1.9999999999999998 3.9999999999999996
vertex -1.9999999999999991 -1.9999999999999998 26.000000000000004
endloop
endfacet
facet normal -1.0 0.0 0.0
outer loop
vertex -1.9999999999999991 -1.9999999999999998 3.9999999999999996
vertex -1.9999999999999991 24.0 26.000000000000004
vertex -1.9999999999999991 24.0 3.9999999999999996
endloop
endfacet
facet normal -5.16377335239842e-32 -2.0142617732484993e-16 1.0
outer loop
vertex 15.50000000000001 22.000000000000014 6.499999999999999
vertex 4.500000000000009 24.000000000000004 6.499999999999999
vertex 4.500000000000009 22.000000000000014 6.499999999999999
endloop
endfacet
facet normal -5.16377335239842e-32 -2.0142617732484993e-16 1.0
outer loop
vertex 4.500000000000009 24.000000000000004 6.499999999999999
vertex 15.50000000000001 22.000000000000014 6.499999999999999
vertex 15.50000000000001 24.0 6.499999999999999
endloop
endfacet
facet normal 0.0 0.0 -1.0
outer loop
vertex -22.0 24.0 0.0
vertex -18.0 19.0 0.0
vertex -22.0 -1.9999999999999991 0.0
endloop
endfacet
facet normal 0.0 0.0 -1.0
outer loop
vertex -18.0 19.0 0.0
vertex -22.0 24.0 0.0
vertex 32.0 24.0 0.0
endloop
endfacet
facet normal 0.0 0.0 -1.0
outer loop
vertex -18.0 19.0 0.0
vertex 32.0 24.0 0.0
vertex -6.0 19.0 0.0
endloop
endfacet
facet normal 0.0 0.0 -1.0
outer loop
vertex -6.0 19.0 0.0
vertex 32.0 24.0 0.0
vertex -6.0 17.0 0.0
endloop
endfacet
facet normal 0.0 0.0 -1.0
outer loop
vertex -6.0 17.0 0.0
vertex 32.0 24.0 0.0
vertex -6.0 4.999999999999998 0.0
endloop
endfacet
facet normal 0.0 0.0 -1.0
outer loop
vertex -6.0 4.999999999999998 0.0
vertex 32.0 24.0 0.0
vertex -6.0 2.9999999999999996 0.0
endloop
endfacet
facet normal 0.0 0.0 -1.0
outer loop
vertex -22.0 -1.9999999999999991 0.0
vertex -18.0 2.9999999999999996 0.0
vertex 32.0 -1.9999999999999998 0.0
endloop
endfacet
facet normal 0.0 0.0 -1.0
outer loop
vertex -18.0 2.9999999999999996 0.0
vertex -22.0 -1.9999999999999991 0.0
vertex -18.0 19.0 0.0
endloop
endfacet
facet normal 0.0 0.0 -1.0
outer loop
vertex -18.0 2.9999999999999996 0.0
vertex -18.0 19.0 0.0
vertex -18.0 17.0 0.0
endloop
endfacet
facet normal 0.0 0.0 -1.0
outer loop
vertex -18.0 2.9999999999999996 0.0
vertex -18.0 17.0 0.0
vertex -18.0 4.999999999999998 0.0
endloop
endfacet
facet normal 0.0 0.0 -1.0
outer loop
vertex 32.0 -1.9999999999999998 0.0
vertex -18.0 2.9999999999999996 0.0
vertex -6.0 2.9999999999999996 0.0
endloop
endfacet
facet normal 0.0 0.0 -1.0
outer loop
vertex 32.0 -1.9999999999999998 0.0
vertex -6.0 2.9999999999999996 0.0
vertex 32.0 24.0 0.0
endloop
endfacet
facet normal 0.0 0.0 -1.0
outer loop
vertex -6.0 17.0 0.0
vertex -18.0 4.999999999999998 0.0
vertex -18.0 17.0 0.0
endloop
endfacet
facet normal 0.0 0.0 -1.0
outer loop
vertex -18.0 4.999999999999998 0.0
vertex -6.0 17.0 0.0
vertex -6.0 4.999999999999998 0.0
endloop
endfacet
facet normal 0.0 0.0 1.0
outer loop
vertex -1.9999999999999991 -1.9999999999999998 26.000000000000004
vertex 0.0 0.0 26.000000000000004
vertex -1.9999999999999991 24.0 26.000000000000004
endloop
endfacet
facet normal 0.0 0.0 1.0
outer loop
vertex 0.0 0.0 26.000000000000004
vertex -1.9999999999999991 -1.9999999999999998 26.000000000000004
vertex 32.0 -1.9999999999999998 26.000000000000004
endloop
endfacet
facet normal 0.0 0.0 1.0
outer loop
vertex 0.0 0.0 26.000000000000004
vertex 32.0 -1.9999999999999998 26.000000000000004
vertex 29.999999999999996 0.0 26.000000000000004
endloop
endfacet
facet normal 0.0 0.0 1.0
outer loop
vertex 29.999999999999996 0.0 26.000000000000004
vertex 32.0 -1.9999999999999998 26.000000000000004
vertex 29.999999999999996 22.0 26.000000000000004
endloop
endfacet
facet normal 0.0 0.0 1.0
outer loop
vertex -1.9999999999999991 24.0 26.000000000000004
vertex 0.0 22.0 26.000000000000004
vertex 32.0 24.0 26.000000000000004
endloop
endfacet
facet normal 0.0 0.0 1.0
outer loop
vertex 0.0 22.0 26.000000000000004
vertex -1.9999999999999991 24.0 26.000000000000004
vertex 0.0 0.0 26.000000000000004
endloop
endfacet
facet normal 0.0 0.0 1.0
outer loop
vertex 32.0 24.0 26.000000000000004
vertex 0.0 22.0 26.000000000000004
vertex 29.999999999999996 22.0 26.000000000000004
endloop
endfacet
facet normal 0.0 0.0 1.0
outer loop
vertex 32.0 24.0 26.000000000000004
vertex 29.999999999999996 22.0 26.000000000000004
vertex 32.0 -1.9999999999999998 26.000000000000004
endloop
endfacet
facet normal 0.0 0.0 1.0
outer loop
vertex 23.962015562689565 0.0 2.0000000000000018
vertex 0.0 22.0 2.0000000000000018
vertex 0.0 0.0 2.0000000000000018
endloop
endfacet
facet normal 0.0 0.0 1.0
outer loop
vertex 0.0 22.0 2.0000000000000018
vertex 23.962015562689565 0.0 2.0000000000000018
vertex 23.962015562689565 22.0 2.0000000000000018
endloop
endfacet
facet normal -1.0 -0.0 -0.0
outer loop
vertex 23.962015562689565 22.0 16.0
vertex 23.962015562689565 0.0 2.0000000000000018
vertex 23.962015562689565 0.0 16.0
endloop
endfacet
facet normal -1.0 -0.0 -0.0
outer loop
vertex 23.962015562689565 0.0 2.0000000000000018
vertex 23.962015562689565 22.0 16.0
vertex 23.962015562689565 22.0 2.0000000000000018
endloop
endfacet
facet normal 0.0 0.0 1.0
outer loop
vertex 29.999999999999996 0.0 16.0
vertex 23.962015562689565 22.0 16.0
vertex 23.962015562689565 0.0 16.0
endloop
endfacet
facet normal 0.0 0.0 1.0
outer loop
vertex 23.962015562689565 22.0 16.0
vertex 29.999999999999996 0.0 16.0
vertex 29.999999999999996 22.0 16.0
endloop
endfacet
facet normal 0.0 0.0 -1.0
outer loop
vertex 32.0 24.0 0.0
vertex 36.00000000000001 19.0 0.0
vertex 32.0 -1.9999999999999998 0.0
endloop
endfacet
facet normal 0.0 0.0 -1.0
outer loop
vertex 36.00000000000001 19.0 0.0
vertex 32.0 24.0 0.0
vertex 51.99999999999999 24.0 0.0
endloop
endfacet
facet normal 0.0 0.0 -1.0
outer loop
vertex 36.00000000000001 19.0 0.0
vertex 51.99999999999999 24.0 0.0
vertex 48.00000000000001 19.0 0.0
endloop
endfacet
facet normal 0.0 0.0 -1.0
outer loop
vertex 48.00000000000001 19.0 0.0
vertex 51.99999999999999 24.0 0.0
vertex 48.00000000000001 17.0 0.0
endloop
endfacet
facet normal 0.0 0.0 -1.0
outer loop
vertex 48.00000000000001 17.0 0.0
vertex 51.99999999999999 24.0 0.0
vertex 48.00000000000001 5.0 0.0
endloop
endfacet
facet normal 0.0 0.0 -1.0
outer loop
vertex 48.00000000000001 5.0 0.0
vertex 51.99999999999999 24.0 0.0
vertex 48.00000000000001 2.9999999999999996 0.0
endloop
endfacet
facet normal 0.0 0.0 -1.0
outer loop
vertex 32.0 -1.9999999999999998 0.0
vertex 36.00000000000001 2.9999999999999996 0.0
vertex 51.99999999999999 -1.9999999999999998 0.0
endloop
endfacet
facet normal 0.0 0.0 -1.0
outer loop
vertex 36.00000000000001 2.9999999999999996 0.0
vertex 32.0 -1.9999999999999998 0.0
vertex 36.00000000000001 19.0 0.0
endloop
endfacet
facet normal 0.0 0.0 -1.0
outer loop
vertex 36.00000000000001 2.9999999999999996 0.0
vertex 36.00000000000001 19.0 0.0
vertex 36.00000000000001 17.0 0.0
endloop
endfacet
facet normal 0.0 0.0 -1.0
outer loop
vertex 36.00000000000001 2.9999999999999996 0.0
vertex 36.00000000000001 17.0 0.0
vertex 36.00000000000001 5.0 0.0
endloop
endfacet
facet normal 0.0 0.0 -1.0
outer loop
vertex 51.99999999999999 -1.9999999999999998 0.0
vertex 36.00000000000001 2.9999999999999996 0.0
vertex 48.00000000000001 2.9999999999999996 0.0
endloop
endfacet
facet normal 0.0 0.0 -1.0
outer loop
vertex 51.99999999999999 -1.9999999999999998 0.0
vertex 48.00000000000001 2.9999999999999996 0.0
vertex 51.99999999999999 24.0 0.0
endloop
endfacet
facet normal 0.0 0.0 -1.0
outer loop
vertex 48.00000000000001 17.0 0.0
vertex 36.00000000000001 5.0 0.0
vertex 36.00000000000001 17.0 0.0
endloop
endfacet
facet normal 0.0 0.0 -1.0
outer loop
vertex 36.00000000000001 5.0 0.0
vertex 48.00000000000001 17.0 0.0
vertex 48.00000000000001 5.0 0.0
endloop
endfacet
facet normal -0.0 -1.0 -0.0
outer loop
vertex -6.0 19.0 3.9999999999999996
vertex -18.0 19.0 0.0
vertex -6.0 19.0 0.0
endloop
endfacet
facet normal -0.0 -1.0 -0.0
outer loop
vertex -18.0 19.0 0.0
vertex -6.0 19.0 3.9999999999999996
vertex -18.0 19.0 3.9999999999999996
endloop
endfacet
facet normal -1.0 0.0 0.0
outer loop
vertex -6.0 19.0 3.9999999999999996
vertex -6.0 17.0 0.0
vertex -6.0 17.0 3.9999999999999996
endloop
endfacet
facet normal -1.0 0.0 0.0
outer loop
vertex -6.0 17.0 0.0
vertex -6.0 19.0 3.9999999999999996
vertex -6.0 19.0 0.0
endloop
endfacet
facet normal 0.0 1.0 0.0
outer loop
vertex -18.0 17.0 3.9999999999999996
vertex -6.0 17.0 0.0
vertex -18.0 17.0 0.0
endloop
endfacet
facet normal 0.0 1.0 0.0
outer loop
vertex -6.0 17.0 0.0
vertex -18.0 17.0 3.9999999999999996
vertex -6.0 17.0 3.9999999999999996
endloop
endfacet
facet normal 1.0 0.0 0.0
outer loop
vertex -18.0 19.0 0.0
vertex -18.0 17.0 3.9999999999999996
vertex -18.0 17.0 0.0
endloop
endfacet
facet normal 1.0 0.0 0.0
outer loop
vertex -18.0 17.0 3.9999999999999996
vertex -18.0 19.0 0.0
vertex -18.0 19.0 3.9999999999999996
endloop
endfacet
facet normal -1.0 0.0 0.0
outer loop
vertex -6.0 4.999999999999998 3.9999999999999996
vertex -6.0 2.9999999999999996 0.0
vertex -6.0 2.9999999999999996 3.9999999999999996
endloop
endfacet
facet normal -1.0 0.0 0.0
outer loop
vertex -6.0 2.9999999999999996 0.0
vertex -6.0 4.999999999999998 3.9999999999999996
vertex -6.0 4.999999999999998 0.0
endloop
endfacet
facet normal 0.0 1.0 0.0
outer loop
vertex -18.0 2.9999999999999996 3.9999999999999996
vertex -6.0 2.9999999999999996 0.0
vertex -18.0 2.9999999999999996 0.0
endloop
endfacet
facet normal 0.0 1.0 0.0
outer loop
vertex -6.0 2.9999999999999996 0.0
vertex -18.0 2.9999999999999996 3.9999999999999996
vertex -6.0 2.9999999999999996 3.9999999999999996
endloop
endfacet
facet normal 1.0 0.0 0.0
outer loop
vertex -18.0 4.999999999999998 0.0
vertex -18.0 2.9999999999999996 3.9999999999999996
vertex -18.0 2.9999999999999996 0.0
endloop
endfacet
facet normal 1.0 0.0 0.0
outer loop
vertex -18.0 2.9999999999999996 3.9999999999999996
vertex -18.0 4.999999999999998 0.0
vertex -18.0 4.999999999999998 3.9999999999999996
endloop
endfacet
facet normal -0.0 -1.0 -0.0
outer loop
vertex -6.0 4.999999999999998 3.9999999999999996
vertex -18.0 4.999999999999998 0.0
vertex -6.0 4.999999999999998 0.0
endloop
endfacet
facet normal -0.0 -1.0 -0.0
outer loop
vertex -18.0 4.999999999999998 0.0
vertex -6.0 4.999999999999998 3.9999999999999996
vertex -18.0 4.999999999999998 3.9999999999999996
endloop
endfacet
facet normal -1.0 0.0 0.0
outer loop
vertex -22.0 24.0 3.9999999999999996
vertex -22.0 -1.9999999999999991 0.0
vertex -22.0 -1.9999999999999991 3.9999999999999996
endloop
endfacet
facet normal -1.0 0.0 0.0
outer loop
vertex -22.0 -1.9999999999999991 0.0
vertex -22.0 24.0 3.9999999999999996
vertex -22.0 24.0 0.0
endloop
endfacet
facet normal 0.0 0.0 1.0
outer loop
vertex -22.0 -1.9999999999999991 3.9999999999999996
vertex -18.0 2.9999999999999996 3.9999999999999996
vertex -22.0 24.0 3.9999999999999996
endloop
endfacet
facet normal 0.0 0.0 1.0
outer loop
vertex -18.0 2.9999999999999996 3.9999999999999996
vertex -22.0 -1.9999999999999991 3.9999999999999996
vertex -1.9999999999999991 -1.9999999999999998 3.9999999999999996
endloop
endfacet
facet normal 0.0 0.0 1.0
outer loop
vertex -18.0 2.9999999999999996 3.9999999999999996
vertex -1.9999999999999991 -1.9999999999999998 3.9999999999999996
vertex -6.0 2.9999999999999996 3.9999999999999996
endloop
endfacet
facet normal 0.0 0.0 1.0
outer loop
vertex -6.0 2.9999999999999996 3.9999999999999996
vertex -1.9999999999999991 -1.9999999999999998 3.9999999999999996
vertex -6.0 4.999999999999998 3.9999999999999996
endloop
endfacet
facet normal 0.0 0.0 1.0
outer loop
vertex -6.0 4.999999999999998 3.9999999999999996
vertex -1.9999999999999991 -1.9999999999999998 3.9999999999999996
vertex -6.0 17.0 3.9999999999999996
endloop
endfacet
facet normal 0.0 0.0 1.0
outer loop
vertex -6.0 17.0 3.9999999999999996
vertex -1.9999999999999991 -1.9999999999999998 3.9999999999999996
vertex -6.0 19.0 3.9999999999999996
endloop
endfacet
facet normal 0.0 0.0 1.0
outer loop
vertex -22.0 24.0 3.9999999999999996
vertex -18.0 19.0 3.9999999999999996
vertex -1.9999999999999991 24.0 3.9999999999999996
endloop
endfacet
facet normal 0.0 0.0 1.0
outer loop
vertex -18.0 19.0 3.9999999999999996
vertex -22.0 24.0 3.9999999999999996
vertex -18.0 2.9999999999999996 3.9999999999999996
endloop
endfacet
facet normal 0.0 0.0 1.0
outer loop
vertex -18.0 19.0 3.9999999999999996
vertex -18.0 2.9999999999999996 3.9999999999999996
vertex -18.0 4.999999999999998 3.9999999999999996
endloop
endfacet
facet normal 0.0 0.0 1.0
outer loop
vertex -18.0 19.0 3.9999999999999996
vertex -18.0 4.999999999999998 3.9999999999999996
vertex -18.0 17.0 3.9999999999999996
endloop
endfacet
facet normal 0.0 0.0 1.0
outer loop
vertex -1.9999999999999991 24.0 3.9999999999999996
vertex -18.0 19.0 3.9999999999999996
vertex -6.0 19.0 3.9999999999999996
endloop
endfacet
facet normal 0.0 0.0 1.0
outer loop
vertex -1.9999999999999991 24.0 3.9999999999999996
vertex -6.0 19.0 3.9999999999999996
vertex -1.9999999999999991 -1.9999999999999998 3.9999999999999996
endloop
endfacet
facet normal 0.0 0.0 1.0
outer loop
vertex -6.0 4.999999999999998 3.9999999999999996
vertex -18.0 17.0 3.9999999999999996
vertex -18.0 4.999999999999998 3.9999999999999996
endloop
endfacet
facet normal 0.0 0.0 1.0
outer loop
vertex -18.0 17.0 3.9999999999999996
vertex -6.0 4.999999999999998 3.9999999999999996
vertex -6.0 17.0 3.9999999999999996
endloop
endfacet
facet normal 0.0 1.0 0.0
outer loop
vertex 36.00000000000001 17.0 3.9999999999999996
vertex 48.00000000000001 17.0 0.0
vertex 36.00000000000001 17.0 0.0
endloop
endfacet
facet normal 0.0 1.0 0.0
outer loop
vertex 48.00000000000001 17.0 0.0
vertex 36.00000000000001 17.0 3.9999999999999996
vertex 48.00000000000001 17.0 3.9999999999999996
endloop
endfacet
facet normal 1.0 0.0 0.0
outer loop
vertex 36.00000000000001 19.0 0.0
vertex 36.00000000000001 17.0 3.9999999999999996
vertex 36.00000000000001 17.0 0.0
endloop
endfacet
facet normal 1.0 0.0 0.0
outer loop
vertex 36.00000000000001 17.0 3.9999999999999996
vertex 36.00000000000001 19.0 0.0
vertex 36.00000000000001 19.0 3.9999999999999996
endloop
endfacet
facet normal -0.0 -1.0 -0.0
outer loop
vertex 48.00000000000001 19.0 3.9999999999999996
vertex 36.00000000000001 19.0 0.0
vertex 48.00000000000001 19.0 0.0
endloop
endfacet
facet normal -0.0 -1.0 -0.0
outer loop
vertex 36.00000000000001 19.0 0.0
vertex 48.00000000000001 19.0 3.9999999999999996
vertex 36.00000000000001 19.0 3.9999999999999996
endloop
endfacet
facet normal -1.0 0.0 0.0
outer loop
vertex 48.00000000000001 19.0 3.9999999999999996
vertex 48.00000000000001 17.0 0.0
vertex 48.00000000000001 17.0 3.9999999999999996
endloop
endfacet
facet normal -1.0 0.0 0.0
outer loop
vertex 48.00000000000001 17.0 0.0
vertex 48.00000000000001 19.0 3.9999999999999996
vertex 48.00000000000001 19.0 0.0
endloop
endfacet
facet normal -0.0 -1.0 -0.0
outer loop
vertex 48.00000000000001 5.0 3.9999999999999996
vertex 36.00000000000001 5.0 0.0
vertex 48.00000000000001 5.0 0.0
endloop
endfacet
facet normal -0.0 -1.0 -0.0
outer loop
vertex 36.00000000000001 5.0 0.0
vertex 48.00000000000001 5.0 3.9999999999999996
vertex 36.00000000000001 5.0 3.9999999999999996
endloop
endfacet
facet normal -1.0 0.0 0.0
outer loop
vertex 48.00000000000001 5.0 3.9999999999999996
vertex 48.00000000000001 2.9999999999999996 0.0
vertex 48.00000000000001 2.9999999999999996 3.9999999999999996
endloop
endfacet
facet normal -1.0 0.0 0.0
outer loop
vertex 48.00000000000001 2.9999999999999996 0.0
vertex 48.00000000000001 5.0 3.9999999999999996
vertex 48.00000000000001 5.0 0.0
endloop
endfacet
facet normal 0.0 1.0 0.0
outer loop
vertex 36.00000000000001 2.9999999999999996 3.9999999999999996
vertex 48.00000000000001 2.9999999999999996 0.0
vertex 36.00000000000001 2.9999999999999996 0.0
endloop
endfacet
facet normal 0.0 1.0 0.0
outer loop
vertex 48.00000000000001 2.9999999999999996 0.0
vertex 36.00000000000001 2.9999999999999996 3.9999999999999996
vertex 48.00000000000001 2.9999999999999996 3.9999999999999996
endloop
endfacet
facet normal 1.0 0.0 0.0
outer loop
vertex 36.00000000000001 5.0 0.0
vertex 36.00000000000001 2.9999999999999996 3.9999999999999996
vertex 36.00000000000001 2.9999999999999996 0.0
endloop
endfacet
facet normal 1.0 0.0 0.0
outer loop
vertex 36.00000000000001 2.9999999999999996 3.9999999999999996
vertex 36.00000000000001 5.0 0.0
vertex 36.00000000000001 5.0 3.9999999999999996
endloop
endfacet
facet normal 1.0 0.0 0.0
outer loop
vertex 32.0 24.0 0.0
vertex 32.0 -1.9999999999999998 3.9999999999999996
vertex 32.0 -1.9999999999999998 0.0
endloop
endfacet
facet normal 1.0 0.0 0.0
outer loop
vertex 32.0 -1.9999999999999998 3.9999999999999996
vertex 32.0 24.0 0.0
vertex 32.0 24.0 3.9999999999999996
endloop
endfacet
facet normal 0.0 -1.0 0.0
outer loop
vertex 51.99999999999999 -1.9999999999999998 3.9999999999999996
vertex 32.0 -1.9999999999999998 0.0
vertex 51.99999999999999 -1.9999999999999998 0.0
endloop
endfacet
facet normal 0.0 -1.0 0.0
outer loop
vertex 32.0 -1.9999999999999998 0.0
vertex 51.99999999999999 -1.9999999999999998 3.9999999999999996
vertex 32.0 -1.9999999999999998 3.9999999999999996
endloop
endfacet
facet normal 1.0 0.0 0.0
outer loop
vertex 51.99999999999999 24.0 0.0
vertex 51.99999999999999 -1.9999999999999998 3.9999999999999996
vertex 51.99999999999999 -1.9999999999999998 0.0
endloop
endfacet
facet normal 1.0 0.0 0.0
outer loop
vertex 51.99999999999999 -1.9999999999999998 3.9999999999999996
vertex 51.99999999999999 24.0 0.0
vertex 51.99999999999999 24.0 3.9999999999999996
endloop
endfacet
facet normal 0.0 1.0 0.0
outer loop
vertex 32.0 24.0 3.9999999999999996
vertex 51.99999999999999 24.0 0.0
vertex 32.0 24.0 0.0
endloop
endfacet
facet normal 0.0 1.0 0.0
outer loop
vertex 51.99999999999999 24.0 0.0
vertex 32.0 24.0 3.9999999999999996
vertex 51.99999999999999 24.0 3.9999999999999996
endloop
endfacet
facet normal 0.0 0.0 1.0
outer loop
vertex 32.0 -1.9999999999999998 3.9999999999999996
vertex 36.00000000000001 2.9999999999999996 3.9999999999999996
vertex 32.0 24.0 3.9999999999999996
endloop
endfacet
facet normal 0.0 0.0 1.0
outer loop
vertex 36.00000000000001 2.9999999999999996 3.9999999999999996
vertex 32.0 -1.9999999999999998 3.9999999999999996
vertex 51.99999999999999 -1.9999999999999998 3.9999999999999996
endloop
endfacet
facet normal 0.0 0.0 1.0
outer loop
vertex 36.00000000000001 2.9999999999999996 3.9999999999999996
vertex 51.99999999999999 -1.9999999999999998 3.9999999999999996
vertex 48.00000000000001 2.9999999999999996 3.9999999999999996
endloop
endfacet
facet normal 0.0 0.0 1.0
outer loop
vertex 48.00000000000001 2.9999999999999996 3.9999999999999996
vertex 51.99999999999999 -1.9999999999999998 3.9999999999999996
vertex 48.00000000000001 5.0 3.9999999999999996
endloop
endfacet
facet normal 0.0 0.0 1.0
outer loop
vertex 48.00000000000001 5.0 3.9999999999999996
vertex 51.99999999999999 -1.9999999999999998 3.9999999999999996
vertex 48.00000000000001 17.0 3.9999999999999996
endloop
endfacet
facet normal 0.0 0.0 1.0
outer loop
vertex 48.00000000000001 17.0 3.9999999999999996
vertex 51.99999999999999 -1.9999999999999998 3.9999999999999996
vertex 48.00000000000001 19.0 3.9999999999999996
endloop
endfacet
facet normal 0.0 0.0 1.0
outer loop
vertex 32.0 24.0 3.9999999999999996
vertex 36.00000000000001 19.0 3.9999999999999996
vertex 51.99999999999999 24.0 3.9999999999999996
endloop
endfacet
facet normal 0.0 0.0 1.0
outer loop
vertex 36.00000000000001 19.0 3.9999999999999996
vertex 32.0 24.0 3.9999999999999996
vertex 36.00000000000001 2.9999999999999996 3.9999999999999996
endloop
endfacet
facet normal 0.0 0.0 1.0
outer loop
vertex 36.00000000000001 19.0 3.9999999999999996
vertex 36.00000000000001 2.9999999999999996 3.9999999999999996
vertex 36.00000000000001 5.0 3.9999999999999996
endloop
endfacet
facet normal 0.0 0.0 1.0
outer loop
vertex 36.00000000000001 19.0 3.9999999999999996
vertex 36.00000000000001 5.0 3.9999999999999996
vertex 36.00000000000001 17.0 3.9999999999999996
endloop
endfacet
facet normal 0.0 0.0 1.0
outer loop
vertex 51.99999999999999 24.0 3.9999999999999996
vertex 36.00000000000001 19.0 3.9999999999999996
vertex 48.00000000000001 19.0 3.9999999999999996
endloop
endfacet
facet normal 0.0 0.0 1.0
outer loop
vertex 51.99999999999999 24.0 3.9999999999999996
vertex 48.00000000000001 19.0 3.9999999999999996
vertex 51.99999999999999 -1.9999999999999998 3.9999999999999996
endloop
endfacet
facet normal 0.0 0.0 1.0
outer loop
vertex 48.00000000000001 5.0 3.9999999999999996
vertex 36.00000000000001 17.0 3.9999999999999996
vertex 36.00000000000001 5.0 3.9999999999999996
endloop
endfacet
facet normal 0.0 0.0 1.0
outer loop
vertex 36.00000000000001 17.0 3.9999999999999996
vertex 48.00000000000001 5.0 3.9999999999999996
vertex 48.00000000000001 17.0 3.9999999999999996
endloop
endfacet
endsolid model
