solid model
facet normal -1.0 -0.0 -0.0
outer loop
vertex -15.900000000000002 61.76929974881021 3.9999999999999996
vertex -15.900000000000002 39.969299748810215 1.9999999999999998
vertex -15.900000000000002 39.969299748810215 3.9999999999999996
endloop
endfacet
facet normal -1.0 -0.0 -0.0
outer loop
vertex -15.900000000000002 39.969299748810215 1.9999999999999998
vertex -15.900000000000002 61.76929974881021 3.9999999999999996
vertex -15.900000000000002 61.76929974881021 1.9999999999999998
endloop
endfacet
facet normal 1.0 0.0 0.0
outer loop
vertex 16.000000000000004 63.86929974881021 0.0
vertex 16.000000000000004 37.869299748810214 1.9999999999999998
vertex 16.000000000000004 37.869299748810214 0.0
endloop
endfacet
facet normal 1.0 0.0 0.0
outer loop
vertex 16.000000000000004 37.869299748810214 1.9999999999999998
vertex 16.000000000000004 63.86929974881021 0.0
vertex 16.000000000000004 63.86929974881021 1.9999999999999998
endloop
endfacet
facet normal 0.0 -1.0 0.0
outer loop
vertex 16.000000000000004 37.869299748810214 1.9999999999999998
vertex -18.0 37.869299748810214 0.0
vertex 16.000000000000004 37.869299748810214 0.0
endloop
endfacet
facet normal 0.0 -1.0 0.0
outer loop
vertex -18.0 37.869299748810214 0.0
vertex 16.000000000000004 37.869299748810214 1.9999999999999998
vertex -18.0 37.869299748810214 1.9999999999999998
endloop
endfacet
facet normal 0.0 0.0 1.0
outer loop
vertex 13.90000000000001 39.969299748810215 3.9999999999999996
vertex -15.900000000000002 61.76929974881021 3.9999999999999996
vertex -15.900000000000002 39.969299748810215 3.9999999999999996
endloop
endfacet
facet normal 0.0 0.0 1.0
outer loop
vertex -15.900000000000002 61.76929974881021 3.9999999999999996
vertex 13.90000000000001 39.969299748810215 3.9999999999999996
vertex 13.90000000000001 61.76929974881021 3.9999999999999996
endloop
endfacet
facet normal -1.0 -0.0 -0.0
outer loop
vertex -18.0 63.86929974881021 1.9999999999999998
vertex -18.0 37.869299748810214 0.0
vertex -18.0 37.869299748810214 1.9999999999999998
endloop
endfacet
facet normal -1.0 -0.0 -0.0
outer loop
vertex -18.0 37.869299748810214 0.0
vertex -18.0 63.86929974881021 1.9999999999999998
vertex -18.0 63.86929974881021 0.0
endloop
endfacet
facet normal 0.0 1.0 0.0
outer loop
vertex -18.0 63.86929974881021 1.9999999999999998
vertex 16.000000000000004 63.86929974881021 0.0
vertex -18.0 63.86929974881021 0.0
endloop
endfacet
facet normal 0.0 1.0 0.0
outer loop
vertex 16.000000000000004 63.86929974881021 0.0
vertex -18.0 63.86929974881021 1.9999999999999998
vertex 16.000000000000004 63.86929974881021 1.9999999999999998
endloop
endfacet
facet normal 0.0 -1.0 0.0
outer loop
vertex 13.90000000000001 39.969299748810215 3.9999999999999996
vertex -15.900000000000002 39.969299748810215 1.9999999999999998
vertex 13.90000000000001 39.969299748810215 1.9999999999999998
endloop
endfacet
facet normal 0.0 -1.0 0.0
outer loop
vertex -15.900000000000002 39.969299748810215 1.9999999999999998
vertex 13.90000000000001 39.969299748810215 3.9999999999999996
vertex -15.900000000000002 39.969299748810215 3.9999999999999996
endloop
endfacet
facet normal 1.0 0.0 0.0
outer loop
vertex 13.90000000000001 61.76929974881021 1.9999999999999998
vertex 13.90000000000001 39.969299748810215 3.9999999999999996
vertex 13.90000000000001 39.969299748810215 1.9999999999999998
endloop
endfacet
facet normal 1.0 0.0 0.0
outer loop
vertex 13.90000000000001 39.969299748810215 3.9999999999999996
vertex 13.90000000000001 61.76929974881021 1.9999999999999998
vertex 13.90000000000001 61.76929974881021 3.9999999999999996
endloop
endfacet
facet normal 0.0 1.0 0.0
outer loop
vertex -15.900000000000002 61.76929974881021 3.9999999999999996
vertex 13.90000000000001 61.76929974881021 1.9999999999999998
vertex -15.900000000000002 61.76929974881021 1.9999999999999998
endloop
endfacet
facet normal 0.0 1.0 0.0
outer loop
vertex 13.90000000000001 61.76929974881021 1.9999999999999998
vertex -15.900000000000002 61.76929974881021 3.9999999999999996
vertex 13.90000000000001 61.76929974881021 3.9999999999999996
endloop
endfacet
facet normal 0.0 0.0 1.0
outer loop
vertex -18.0 37.869299748810214 1.9999999999999998
vertex -15.900000000000002 39.969299748810215 1.9999999999999998
vertex -18.0 63.86929974881021 1.9999999999999998
endloop
endfacet
facet normal 0.0 0.0 1.0
outer loop
vertex -15.900000000000002 39.969299748810215 1.9999999999999998
vertex -18.0 37.869299748810214 1.9999999999999998
vertex 16.000000000000004 37.869299748810214 1.9999999999999998
endloop
endfacet
facet normal 0.0 0.0 1.0
outer loop
vertex -15.900000000000002 39.969299748810215 1.9999999999999998
vertex 16.000000000000004 37.869299748810214 1.9999999999999998
vertex 13.90000000000001 39.969299748810215 1.9999999999999998
endloop
endfacet
facet normal 0.0 0.0 1.0
outer loop
vertex 13.90000000000001 39.969299748810215 1.9999999999999998
vertex 16.000000000000004 37.869299748810214 1.9999999999999998
vertex 13.90000000000001 61.76929974881021 1.9999999999999998
endloop
endfacet
facet normal 0.0 0.0 1.0
outer loop
vertex -18.0 63.86929974881021 1.9999999999999998
vertex -15.900000000000002 61.76929974881021 1.9999999999999998
vertex 16.000000000000004 63.86929974881021 1.9999999999999998
endloop
endfacet
facet normal 0.0 0.0 1.0
outer loop
vertex -15.900000000000002 61.76929974881021 1.9999999999999998
vertex -18.0 63.86929974881021 1.9999999999999998
vertex -15.900000000000002 39.969299748810215 1.9999999999999998
endloop
endfacet
facet normal 0.0 0.0 1.0
outer loop
vertex 16.000000000000004 63.86929974881021 1.9999999999999998
vertex -15.900000000000002 61.76929974881021 1.9999999999999998
vertex 13.90000000000001 61.76929974881021 1.9999999999999998
endloop
endfacet
facet normal 0.0 0.0 1.0
outer loop
vertex 16.000000000000004 63.86929974881021 1.9999999999999998
vertex 13.90000000000001 61.76929974881021 1.9999999999999998
vertex 16.000000000000004 37.869299748810214 1.9999999999999998
endloop
endfacet
facet normal 0.0 0.0 -1.0
outer loop
vertex 16.000000000000004 63.86929974881021 0.0
vertex -18.0 37.869299748810214 0.0
vertex -18.0 63.86929974881021 0.0
endloop
endfacet
facet normal 0.0 0.0 -1.0
outer loop
vertex -18.0 37.869299748810214 0.0
vertex 16.000000000000004 63.86929974881021 0.0
vertex 16.000000000000004 37.869299748810214 0.0
endloop
endfacet
endsolid model
